<svg width="145" height="131" viewBox="0 0 145 131" fill="none" xmlns="http://www.w3.org/2000/svg">
<path d="M138.439 35.24C137.095 35.24 135.943 34.536 134.983 33.128V43.496C134.983 43.816 134.807 43.976 134.455 43.976C134.135 43.976 133.975 43.816 133.975 43.496V14.168C133.431 14.456 132.903 14.808 132.391 15.224C132.295 15.32 132.183 15.368 132.055 15.368C131.703 15.368 131.527 15.192 131.527 14.84C131.527 14.68 131.591 14.552 131.719 14.456C132.455 13.88 133.207 13.384 133.975 12.968V10.232C133.975 9.91195 134.135 9.75195 134.455 9.75195C134.807 9.75195 134.983 9.91195 134.983 10.232V12.536C136.071 12.088 137.063 11.864 137.959 11.864C139.879 11.864 141.271 12.888 142.135 14.936C143.031 16.984 143.479 19.848 143.479 23.528C143.479 25.8 143.287 27.816 142.903 29.576C142.551 31.336 141.991 32.728 141.223 33.752C140.487 34.744 139.559 35.24 138.439 35.24ZM137.959 12.872C137.095 12.872 136.103 13.128 134.983 13.64V31.448C135.399 32.344 135.927 33.032 136.567 33.512C137.207 33.992 137.831 34.232 138.439 34.232C139.335 34.232 140.071 33.768 140.647 32.84C141.255 31.912 141.703 30.648 141.991 29.048C142.279 27.416 142.423 25.576 142.423 23.528C142.423 20.2 142.071 17.592 141.367 15.704C140.695 13.816 139.559 12.872 137.959 12.872Z" fill="white"/>
<path d="M123.626 35.24C122.538 35.24 121.578 34.744 120.746 33.752C119.946 32.76 119.306 31.384 118.826 29.624C118.378 27.864 118.154 25.832 118.154 23.528C118.154 21.224 118.378 19.208 118.826 17.48C119.306 15.72 119.946 14.344 120.746 13.352C121.578 12.36 122.538 11.864 123.626 11.864C124.714 11.864 125.658 12.376 126.458 13.4C127.29 14.392 127.946 15.768 128.426 17.528C128.906 19.256 129.146 21.256 129.146 23.528C129.146 25.8 128.906 27.816 128.426 29.576C127.946 31.336 127.29 32.728 126.458 33.752C125.658 34.744 124.714 35.24 123.626 35.24ZM123.626 34.232C124.49 34.232 125.258 33.768 125.93 32.84C126.602 31.912 127.13 30.648 127.514 29.048C127.898 27.416 128.09 25.576 128.09 23.528C128.09 21.48 127.898 19.656 127.514 18.056C127.13 16.456 126.602 15.192 125.93 14.264C125.258 13.336 124.49 12.872 123.626 12.872C122.794 12.872 122.042 13.336 121.37 14.264C120.698 15.192 120.17 16.456 119.786 18.056C119.402 19.656 119.21 21.48 119.21 23.528C119.21 25.576 119.402 27.416 119.786 29.048C120.17 30.648 120.698 31.912 121.37 32.84C122.042 33.768 122.794 34.232 123.626 34.232Z" fill="white"/>
<path d="M104.876 35C104.556 35 104.396 34.84 104.396 34.52V1.256C104.396 0.936002 104.556 0.776001 104.876 0.776001C105.228 0.776001 105.404 0.936002 105.404 1.256V14.504C106.044 13.544 106.732 12.872 107.468 12.488C108.204 12.072 109.004 11.864 109.868 11.864C112.524 11.864 113.852 13.64 113.852 17.192V34.52C113.852 34.84 113.676 35 113.324 35C113.004 35 112.844 34.84 112.844 34.52V17.192C112.844 15.624 112.588 14.52 112.076 13.88C111.564 13.208 110.828 12.872 109.868 12.872C108.876 12.872 107.996 13.176 107.228 13.784C106.492 14.36 105.884 15.096 105.404 15.992V34.52C105.404 34.84 105.228 35 104.876 35Z" fill="white"/>
<path d="M95.4275 35C94.1475 35 93.0275 34.568 92.0675 33.704C91.1395 32.84 90.5795 31.768 90.3875 30.488C90.3555 30.328 90.3875 30.2 90.4835 30.104C90.6115 29.976 90.7555 29.912 90.9155 29.912C91.1715 29.912 91.3315 30.056 91.3955 30.344C91.5555 31.368 92.0035 32.232 92.7395 32.936C93.5075 33.64 94.4035 33.992 95.4275 33.992C96.0035 33.992 96.5795 33.864 97.1555 33.608C97.7635 33.352 98.2595 32.92 98.6435 32.312C99.0595 31.672 99.2675 30.84 99.2675 29.816C99.2675 28.664 98.9955 27.672 98.4515 26.84C97.9395 26.008 97.2195 25.24 96.2915 24.536L95.2355 23.72C93.7635 22.568 92.7075 21.464 92.0675 20.408C91.4275 19.352 91.1075 18.184 91.1075 16.904C91.1075 15.304 91.5715 14.104 92.4995 13.304C93.4595 12.504 94.4835 12.104 95.5715 12.104C96.4995 12.104 97.3155 12.376 98.0195 12.92C98.7235 13.432 99.2675 14.152 99.6515 15.08C99.7155 15.208 99.6995 15.352 99.6035 15.512C99.5395 15.672 99.4115 15.752 99.2195 15.752C98.9955 15.752 98.8355 15.656 98.7395 15.464C98.0675 13.896 97.0115 13.112 95.5715 13.112C94.5795 13.112 93.7635 13.448 93.1235 14.12C92.4835 14.76 92.1635 15.688 92.1635 16.904C92.1635 18.088 92.4195 19.112 92.9315 19.976C93.4755 20.808 94.4515 21.784 95.8595 22.904L97.0115 23.816C98.0035 24.584 98.8035 25.448 99.4115 26.408C100.019 27.368 100.323 28.504 100.323 29.816C100.323 31.384 99.8595 32.648 98.9315 33.608C98.0035 34.536 96.8355 35 95.4275 35Z" fill="white"/>
<path d="M67.7038 35C67.3838 35 67.2238 34.84 67.2238 34.52V12.584C67.2238 12.264 67.3838 12.104 67.7038 12.104C68.0558 12.104 68.2318 12.264 68.2318 12.584V14.504C68.8718 13.544 69.5598 12.872 70.2958 12.488C71.0318 12.072 71.8318 11.864 72.6958 11.864C75.3518 11.864 76.6798 13.752 76.6798 17.528C76.6798 17.912 76.5198 18.104 76.1998 18.104C75.8478 18.104 75.6718 17.912 75.6718 17.528C75.6718 15.8 75.4158 14.6 74.9038 13.928C74.3918 13.224 73.6558 12.872 72.6958 12.872C71.7038 12.872 70.8238 13.176 70.0558 13.784C69.3198 14.36 68.7118 15.096 68.2318 15.992V34.52C68.2318 34.84 68.0558 35 67.7038 35Z" fill="white"/>
<path d="M58.1442 35.24C57.0562 35.24 56.0802 34.744 55.2162 33.752C54.3842 32.728 53.7282 31.336 53.2482 29.576C52.8002 27.816 52.5762 25.8 52.5762 23.528C52.5762 21.256 52.8002 19.24 53.2482 17.48C53.7282 15.72 54.3682 14.344 55.1682 13.352C56.0002 12.36 56.9602 11.864 58.0482 11.864C59.0402 11.864 59.8882 12.28 60.5922 13.112C61.3282 13.912 61.8882 15.032 62.2722 16.472C62.6882 17.88 62.8962 19.496 62.8962 21.32C62.8962 21.832 62.6402 22.088 62.1282 22.088H53.6802C53.6482 22.568 53.6322 23.048 53.6322 23.528C53.6322 25.576 53.8242 27.416 54.2082 29.048C54.5922 30.648 55.1202 31.912 55.7922 32.84C56.4962 33.768 57.2802 34.232 58.1442 34.232C58.9762 34.232 59.6802 33.88 60.2562 33.176C60.8642 32.472 61.3442 31.544 61.6962 30.392C61.7922 30.104 61.9682 29.96 62.2242 29.96C62.4482 29.96 62.5922 30.056 62.6562 30.248C62.7202 30.408 62.7202 30.584 62.6562 30.776C62.2082 32.152 61.6162 33.24 60.8802 34.04C60.1442 34.84 59.2322 35.24 58.1442 35.24ZM58.0482 12.872C56.9602 12.872 56.0162 13.64 55.2162 15.176C54.4482 16.712 53.9522 18.68 53.7282 21.08H61.8882C61.8242 18.744 61.4402 16.792 60.7362 15.224C60.0642 13.656 59.1682 12.872 58.0482 12.872Z" fill="white"/>
<path d="M35.6994 35C35.4114 35 35.2354 34.84 35.1714 34.52L33.2994 12.584C33.2354 12.264 33.3954 12.104 33.7794 12.104C34.0674 12.104 34.2434 12.264 34.3074 12.584L36.1314 33.368C37.2834 31.928 38.2274 30.664 38.9634 29.576C39.7314 28.488 40.3394 27.528 40.7874 26.696C40.3074 25.672 39.9714 24.744 39.7794 23.912C39.6194 23.08 39.5394 22.296 39.5394 21.56C39.5394 20.344 39.6834 19.384 39.9714 18.68C40.2914 17.944 40.7554 17.576 41.3634 17.576C41.9714 17.576 42.4194 17.944 42.7074 18.68C43.0274 19.384 43.1874 20.344 43.1874 21.56C43.1874 22.296 43.0914 23.08 42.8994 23.912C42.7394 24.744 42.4194 25.672 41.9394 26.696C42.3874 27.528 42.9794 28.488 43.7154 29.576C44.4834 30.664 45.4434 31.928 46.5954 33.368L48.4194 12.584C48.4834 12.264 48.6594 12.104 48.9474 12.104C49.3314 12.104 49.4914 12.264 49.4274 12.584L47.5554 34.52C47.4914 34.84 47.3154 35 47.0274 35C46.9954 35 46.9314 35 46.8354 35C46.7394 35 46.6434 34.936 46.5474 34.808C45.2994 33.368 44.2594 32.072 43.4274 30.92C42.5954 29.768 41.9074 28.728 41.3634 27.8C40.8194 28.728 40.1314 29.768 39.2994 30.92C38.4674 32.072 37.4274 33.368 36.1794 34.808C36.0834 34.936 35.9874 35 35.8914 35C35.8274 35 35.7634 35 35.6994 35ZM40.5474 21.56C40.5474 22.136 40.5954 22.744 40.6914 23.384C40.8194 23.992 41.0434 24.696 41.3634 25.496C41.6834 24.696 41.8914 23.992 41.9874 23.384C42.1154 22.744 42.1794 22.136 42.1794 21.56C42.1794 20.696 42.0834 19.992 41.8914 19.448C41.6994 18.904 41.5234 18.632 41.3634 18.632C41.2034 18.632 41.0274 18.904 40.8354 19.448C40.6434 19.992 40.5474 20.696 40.5474 21.56Z" fill="white"/>
<path d="M24.6733 35.24C23.5853 35.24 22.6253 34.744 21.7933 33.752C20.9933 32.76 20.3533 31.384 19.8733 29.624C19.4253 27.864 19.2013 25.832 19.2013 23.528C19.2013 21.224 19.4253 19.208 19.8733 17.48C20.3533 15.72 20.9933 14.344 21.7933 13.352C22.6253 12.36 23.5853 11.864 24.6733 11.864C25.7613 11.864 26.7053 12.376 27.5053 13.4C28.3373 14.392 28.9933 15.768 29.4733 17.528C29.9533 19.256 30.1933 21.256 30.1933 23.528C30.1933 25.8 29.9533 27.816 29.4733 29.576C28.9933 31.336 28.3373 32.728 27.5053 33.752C26.7053 34.744 25.7613 35.24 24.6733 35.24ZM24.6733 34.232C25.5373 34.232 26.3053 33.768 26.9773 32.84C27.6493 31.912 28.1773 30.648 28.5613 29.048C28.9453 27.416 29.1373 25.576 29.1373 23.528C29.1373 21.48 28.9453 19.656 28.5613 18.056C28.1773 16.456 27.6493 15.192 26.9773 14.264C26.3053 13.336 25.5373 12.872 24.6733 12.872C23.8413 12.872 23.0893 13.336 22.4173 14.264C21.7453 15.192 21.2173 16.456 20.8333 18.056C20.4493 19.656 20.2573 21.48 20.2573 23.528C20.2573 25.576 20.4493 27.416 20.8333 29.048C21.2173 30.648 21.7453 31.912 22.4173 32.84C23.0893 33.768 23.8413 34.232 24.6733 34.232Z" fill="white"/>
<path d="M13.8913 35C13.5713 35 13.4113 34.84 13.4113 34.52V1.256C13.4113 0.936002 13.5713 0.776001 13.8913 0.776001C14.2433 0.776001 14.4193 0.936002 14.4193 1.256V34.52C14.4193 34.84 14.2433 35 13.8913 35Z" fill="white"/>
<path d="M6.08 35C5.76 35 5.6 34.84 5.6 34.52V13.592H2.48C2.16 13.592 2 13.416 2 13.064C2 12.744 2.16 12.584 2.48 12.584H5.6V8.168C5.6 3.24 7.968 0.776001 12.704 0.776001C13.024 0.776001 13.184 0.952002 13.184 1.304C13.184 1.624 13.024 1.784 12.704 1.784C10.592 1.784 9.04 2.296 8.048 3.32C7.088 4.344 6.608 5.96 6.608 8.168V12.584H10.016C10.336 12.584 10.496 12.744 10.496 13.064C10.496 13.416 10.336 13.592 10.016 13.592H6.608V34.52C6.608 34.84 6.432 35 6.08 35Z" fill="white"/>
<path d="M129.279 130.48C127.551 130.48 126.143 129.712 125.055 128.176C124.031 126.64 123.519 124.208 123.519 120.88C123.519 118.64 123.743 116.208 124.191 113.584C124.703 110.96 125.375 108.336 126.207 105.712C125.375 106.096 124.543 106.416 123.711 106.672C123.391 106.736 123.071 106.672 122.751 106.48C122.495 106.224 122.367 105.936 122.367 105.616C122.367 105.104 122.623 104.784 123.135 104.656C124.351 104.336 125.695 103.824 127.167 103.12C128.383 99.664 129.791 96.464 131.391 93.52C133.055 90.576 134.783 88.208 136.575 86.416C138.367 84.624 140.095 83.728 141.759 83.728C143.807 83.728 144.831 84.848 144.831 87.088C144.831 89.008 144.063 91.056 142.527 93.232C141.055 95.344 139.103 97.392 136.671 99.376C134.239 101.36 131.679 103.056 128.991 104.464C127.967 107.344 127.135 110.224 126.495 113.104C125.855 115.984 125.535 118.608 125.535 120.976C125.535 123.728 125.887 125.68 126.591 126.832C127.295 127.92 128.191 128.464 129.279 128.464C131.071 128.464 132.927 127.248 134.847 124.816C136.767 122.384 138.527 119.216 140.127 115.312C140.319 114.928 140.607 114.736 140.991 114.736C141.311 114.736 141.567 114.896 141.759 115.216C142.015 115.472 142.079 115.792 141.951 116.176C140.095 120.656 138.079 124.176 135.903 126.736C133.791 129.232 131.583 130.48 129.279 130.48ZM141.759 85.744C140.543 85.744 139.231 86.48 137.823 87.952C136.479 89.36 135.135 91.248 133.791 93.616C132.447 95.984 131.199 98.608 130.047 101.488C132.159 100.208 134.175 98.768 136.095 97.168C138.079 95.504 139.679 93.808 140.895 92.08C142.175 90.288 142.815 88.624 142.815 87.088C142.815 86.192 142.463 85.744 141.759 85.744Z" fill="white"/>
<path d="M81.739 130C81.483 130 81.227 129.904 80.971 129.712C80.779 129.52 80.715 129.232 80.779 128.848L92.587 85.168C92.779 84.528 93.131 84.208 93.643 84.208C93.771 84.208 93.899 84.24 94.027 84.304C94.155 84.304 94.347 84.4 94.603 84.592C96.779 86.192 98.635 87.92 100.171 89.776C101.771 91.568 103.019 93.52 103.915 95.632C107.819 91.344 112.939 87.632 119.275 84.496C119.787 84.304 120.107 84.208 120.235 84.208C120.555 84.208 120.811 84.336 121.003 84.592C121.195 84.784 121.227 85.04 121.099 85.36L109.291 129.04C109.099 129.68 108.747 130 108.235 130C107.979 130 107.723 129.904 107.467 129.712C107.275 129.52 107.211 129.232 107.275 128.848L118.507 87.184C112.747 90.192 108.107 93.712 104.587 97.744C104.971 99.216 105.163 100.72 105.163 102.256C105.163 104.112 104.843 106.064 104.203 108.112C103.627 110.096 102.859 111.792 101.899 113.2C101.003 114.544 100.043 115.216 99.019 115.216C98.315 115.216 97.739 114.896 97.291 114.256C96.843 113.552 96.619 112.688 96.619 111.664C96.619 106.864 98.507 102.128 102.283 97.456C101.707 95.6 100.747 93.808 99.403 92.08C98.059 90.288 96.331 88.528 94.219 86.8L82.795 129.04C82.603 129.68 82.251 130 81.739 130ZM98.731 111.184C98.731 112.464 98.923 113.104 99.307 113.104C99.755 113.104 100.267 112.496 100.843 111.28C101.419 110.064 101.931 108.592 102.379 106.864C102.827 105.072 103.051 103.408 103.051 101.872C103.051 101.168 102.987 100.496 102.859 99.856C100.107 103.696 98.731 107.472 98.731 111.184Z" fill="white"/>
<path d="M58.5415 130.48C55.8535 130.48 53.9975 129.552 52.9735 127.696C52.0135 125.776 51.9815 123.152 52.8775 119.824L62.1895 85.168C62.3815 84.528 62.7335 84.208 63.2455 84.208C63.8855 84.208 64.1095 84.56 63.9175 85.264L54.8935 119.824C53.3575 125.584 54.5735 128.464 58.5415 128.464C61.7415 128.464 65.2295 126.352 69.0055 122.128L78.9895 85.168C79.1815 84.528 79.5335 84.208 80.0455 84.208C80.3655 84.208 80.6215 84.304 80.8135 84.496C81.0695 84.688 81.1335 84.976 81.0055 85.36L69.1975 129.04C69.0055 129.68 68.6535 130 68.1415 130C67.8855 130 67.6295 129.904 67.3735 129.712C67.1815 129.52 67.1175 129.232 67.1815 128.848L68.1415 125.488C64.8775 128.816 61.6775 130.48 58.5415 130.48Z" fill="white"/>
<path d="M38.7078 130C38.4518 130 38.1958 129.904 37.9398 129.712C37.7478 129.52 37.6838 129.232 37.7478 128.848L55.6038 62.512C55.7958 61.872 56.1478 61.552 56.6598 61.552C56.9798 61.552 57.2358 61.648 57.4278 61.84C57.6838 62.032 57.7478 62.32 57.6198 62.704L39.7638 129.04C39.5718 129.68 39.2198 130 38.7078 130Z" fill="white"/>
<path d="M1.864 130C1.608 130 1.352 129.904 1.096 129.712C0.904005 129.52 0.840005 129.232 0.904005 128.848L18.184 64.72C18.376 64.08 18.728 63.76 19.24 63.76H28.84C32.168 63.76 34.664 65.04 36.328 67.6C38.056 70.096 38.92 73.136 38.92 76.72C38.92 81.2 38.12 85.168 36.52 88.624C34.984 92.08 32.968 94.736 30.472 96.592C31.752 99.216 32.392 102.448 32.392 106.288C32.392 110.832 31.336 114.896 29.224 118.48C27.176 122.064 24.456 124.88 21.064 126.928C17.672 128.976 13.96 130 9.92801 130H1.864ZM28.264 65.776H20.008L3.208 127.984H10.504C14.024 127.984 17.288 127.056 20.296 125.2C23.304 123.28 25.704 120.688 27.496 117.424C29.352 114.096 30.28 110.288 30.28 106C30.28 102.672 29.768 99.888 28.744 97.648C26.952 98.608 25.064 99.088 23.08 99.088C20.904 99.088 19.144 98.544 17.8 97.456C16.456 96.304 15.784 95.056 15.784 93.712C15.784 91.408 17.512 90.256 20.968 90.256C24.616 90.256 27.464 91.76 29.512 94.768C31.624 93.168 33.352 90.8 34.696 87.664C36.04 84.528 36.712 81.008 36.712 77.104C36.712 74.032 36.008 71.376 34.6 69.136C33.192 66.896 31.08 65.776 28.264 65.776ZM17.8 93.616C17.8 94.448 18.28 95.248 19.24 96.016C20.264 96.72 21.576 97.072 23.176 97.072C24.776 97.072 26.312 96.688 27.784 95.92C26.12 93.424 23.72 92.176 20.584 92.176C18.728 92.176 17.8 92.656 17.8 93.616Z" fill="white"/>
</svg>
