<?xml version="1.0" encoding="utf-8"?>
<!-- Generator: Adobe Illustrator 23.0.6, SVG Export Plug-In . SVG Version: 6.00 Build 0)  -->
<svg version="1.1" id="Logo" xmlns="http://www.w3.org/2000/svg" xmlns:xlink="http://www.w3.org/1999/xlink" x="0px" y="0px"
	 viewBox="0 0 100 100" style="enable-background:new 0 0 100 100;" xml:space="preserve">
<style type="text/css">
	.st0{fill:#FFFFFF;}
</style>
<g>
	<path class="st0" d="M49.26,8.88c13.15,0,14.71,0.05,19.91,0.29c4.8,0.22,7.41,1.02,9.15,1.7c2.3,0.89,3.94,1.96,5.66,3.68
		c1.72,1.72,2.79,3.36,3.68,5.66c0.67,1.74,1.48,4.34,1.7,9.15c0.24,5.19,0.29,6.75,0.29,19.91s-0.05,14.71-0.29,19.91
		c-0.22,4.8-1.02,7.41-1.7,9.15c-0.89,2.3-1.96,3.94-3.68,5.66c-1.72,1.72-3.36,2.79-5.66,3.68c-1.74,0.67-4.34,1.48-9.15,1.7
		c-5.19,0.24-6.75,0.29-19.91,0.29s-14.71-0.05-19.91-0.29c-4.8-0.22-7.41-1.02-9.15-1.7c-2.3-0.89-3.94-1.96-5.66-3.68
		c-1.72-1.72-2.79-3.36-3.68-5.66c-0.67-1.74-1.48-4.34-1.7-9.15c-0.24-5.19-0.29-6.75-0.29-19.91s0.05-14.71,0.29-19.91
		c0.22-4.8,1.02-7.41,1.7-9.15c0.89-2.3,1.96-3.94,3.68-5.66c1.72-1.72,3.36-2.79,5.66-3.68c1.74-0.67,4.34-1.48,9.15-1.7
		C34.55,8.93,36.11,8.88,49.26,8.88 M49.26,0C35.88,0,34.2,0.06,28.95,0.3c-5.24,0.24-8.82,1.07-11.96,2.29
		c-3.24,1.26-5.99,2.94-8.72,5.68c-2.74,2.74-4.42,5.49-5.68,8.72c-1.22,3.13-2.05,6.71-2.29,11.96C0.06,34.2,0,35.88,0,49.26
		c0,13.38,0.06,15.06,0.3,20.31c0.24,5.24,1.07,8.82,2.29,11.96c1.26,3.24,2.94,5.99,5.68,8.72c2.74,2.74,5.49,4.42,8.72,5.68
		c3.13,1.22,6.71,2.05,11.96,2.29c5.25,0.24,6.93,0.3,20.31,0.3s15.06-0.06,20.31-0.3c5.24-0.24,8.82-1.07,11.96-2.29
		c3.24-1.26,5.99-2.94,8.72-5.68c2.74-2.74,4.42-5.49,5.68-8.72c1.22-3.13,2.05-6.71,2.29-11.96c0.24-5.25,0.3-6.93,0.3-20.31
		s-0.06-15.06-0.3-20.31c-0.24-5.24-1.07-8.82-2.29-11.96c-1.26-3.24-2.94-5.99-5.68-8.72c-2.74-2.74-5.49-4.42-8.72-5.68
		c-3.13-1.22-6.71-2.05-11.96-2.29C64.32,0.06,62.64,0,49.26,0L49.26,0z"/>
	<path class="st0" d="M49.26,23.96c-13.97,0-25.3,11.33-25.3,25.3s11.33,25.3,25.3,25.3s25.3-11.33,25.3-25.3
		S63.23,23.96,49.26,23.96z M49.26,65.68c-9.07,0-16.42-7.35-16.42-16.42c0-9.07,7.35-16.42,16.42-16.42
		c9.07,0,16.42,7.35,16.42,16.42C65.68,58.33,58.33,65.68,49.26,65.68z"/>
	<circle class="st0" cx="75.55" cy="22.96" r="5.91"/>
</g>
</svg>
